<?xml version="1.0" encoding="utf-8" standalone="no"?>
<!DOCTYPE svg PUBLIC "-//W3C//DTD SVG 1.1//EN"
  "http://www.w3.org/Graphics/SVG/1.1/DTD/svg11.dtd">
<svg xmlns:xlink="http://www.w3.org/1999/xlink" width="460.8pt" height="345.6pt" viewBox="0 0 460.8 345.6" xmlns="http://www.w3.org/2000/svg" version="1.1">
 <metadata>
  <rdf:RDF xmlns:dc="http://purl.org/dc/elements/1.1/" xmlns:cc="http://creativecommons.org/ns#" xmlns:rdf="http://www.w3.org/1999/02/22-rdf-syntax-ns#">
   <cc:Work>
    <dc:type rdf:resource="http://purl.org/dc/dcmitype/StillImage"/>
    <dc:date>2024-05-29T21:32:09.721744</dc:date>
    <dc:format>image/svg+xml</dc:format>
    <dc:creator>
     <cc:Agent>
      <dc:title>Matplotlib v3.9.0, https://matplotlib.org/</dc:title>
     </cc:Agent>
    </dc:creator>
   </cc:Work>
  </rdf:RDF>
 </metadata>
 <defs>
  <style type="text/css">*{stroke-linejoin: round; stroke-linecap: butt}</style>
 </defs>
 <g id="figure_1">
  <g id="patch_1">
   <path d="M 0 345.6 
L 460.8 345.6 
L 460.8 0 
L 0 0 
z
" style="fill: #ffffff"/>
  </g>
  <g id="axes_1">
   <g id="PathCollection_1">
    <defs>
     <path id="m53b34fa2d5" d="M 0 5.91608 
C 1.568963 5.91608 3.073876 5.292724 4.1833 4.1833 
C 5.292724 3.073876 5.91608 1.568963 5.91608 0 
C 5.91608 -1.568963 5.292724 -3.073876 4.1833 -4.1833 
C 3.073876 -5.292724 1.568963 -5.91608 0 -5.91608 
C -1.568963 -5.91608 -3.073876 -5.292724 -4.1833 -4.1833 
C -5.292724 -3.073876 -5.91608 -1.568963 -5.91608 0 
C -5.91608 1.568963 -5.292724 3.073876 -4.1833 4.1833 
C -3.073876 5.292724 -1.568963 5.91608 0 5.91608 
z
" style="stroke: #808080"/>
    </defs>
    <g clip-path="url(#p444bd3e85c)">
     <use xlink:href="#m53b34fa2d5" x="166.885055" y="103.55401" style="fill: #808080; stroke: #808080"/>
    </g>
   </g>
   <g id="PathCollection_2">
    <g clip-path="url(#p444bd3e85c)">
     <use xlink:href="#m53b34fa2d5" x="263.22314" y="157.932038" style="fill: #808080; stroke: #808080"/>
    </g>
   </g>
   <g id="PathCollection_3">
    <g clip-path="url(#p444bd3e85c)">
     <use xlink:href="#m53b34fa2d5" x="287.352309" y="170.581626" style="fill: #808080; stroke: #808080"/>
    </g>
   </g>
   <g id="PathCollection_4">
    <g clip-path="url(#p444bd3e85c)">
     <use xlink:href="#m53b34fa2d5" x="296.629533" y="143.44161" style="fill: #808080; stroke: #808080"/>
    </g>
   </g>
   <g id="PathCollection_5">
    <g clip-path="url(#p444bd3e85c)">
     <use xlink:href="#m53b34fa2d5" x="375.987026" y="136.827654" style="fill: #808080; stroke: #808080"/>
    </g>
   </g>
   <g id="PathCollection_6">
    <g clip-path="url(#p444bd3e85c)">
     <use xlink:href="#m53b34fa2d5" x="350.267225" y="182.86138" style="fill: #808080; stroke: #808080"/>
    </g>
   </g>
   <g id="PathCollection_7">
    <g clip-path="url(#p444bd3e85c)">
     <use xlink:href="#m53b34fa2d5" x="373.737797" y="167.957515" style="fill: #808080; stroke: #808080"/>
    </g>
   </g>
   <g id="PathCollection_8">
    <g clip-path="url(#p444bd3e85c)">
     <use xlink:href="#m53b34fa2d5" x="398.487273" y="166.318595" style="fill: #808080; stroke: #808080"/>
    </g>
   </g>
   <g id="PathCollection_9">
    <g clip-path="url(#p444bd3e85c)">
     <use xlink:href="#m53b34fa2d5" x="313.902824" y="194.760236" style="fill: #808080; stroke: #808080"/>
    </g>
   </g>
   <g id="PathCollection_10">
    <g clip-path="url(#p444bd3e85c)">
     <use xlink:href="#m53b34fa2d5" x="231.476781" y="158.867195" style="fill: #808080; stroke: #808080"/>
    </g>
   </g>
   <g id="PathCollection_11">
    <g clip-path="url(#p444bd3e85c)">
     <use xlink:href="#m53b34fa2d5" x="211.176179" y="174.327316" style="fill: #808080; stroke: #808080"/>
    </g>
   </g>
   <g id="PathCollection_12">
    <g clip-path="url(#p444bd3e85c)">
     <use xlink:href="#m53b34fa2d5" x="172.80902" y="144.088723" style="fill: #808080; stroke: #808080"/>
    </g>
   </g>
   <g id="PathCollection_13">
    <g clip-path="url(#p444bd3e85c)">
     <use xlink:href="#m53b34fa2d5" x="129.58455" y="146.192705" style="fill: #808080; stroke: #808080"/>
    </g>
   </g>
   <g id="PathCollection_14">
    <g clip-path="url(#p444bd3e85c)">
     <use xlink:href="#m53b34fa2d5" x="153.049879" y="163.813796" style="fill: #808080; stroke: #808080"/>
    </g>
   </g>
   <g id="PathCollection_15">
    <g clip-path="url(#p444bd3e85c)">
     <use xlink:href="#m53b34fa2d5" x="128.306763" y="198.573186" style="fill: #808080; stroke: #808080"/>
    </g>
   </g>
   <g id="PathCollection_16">
    <g clip-path="url(#p444bd3e85c)">
     <use xlink:href="#m53b34fa2d5" x="111.044758" y="175.986306" style="fill: #808080; stroke: #808080"/>
    </g>
   </g>
   <g id="PathCollection_17">
    <g clip-path="url(#p444bd3e85c)">
     <use xlink:href="#m53b34fa2d5" x="117.664733" y="208.475316" style="fill: #808080; stroke: #808080"/>
    </g>
   </g>
   <g id="PathCollection_18">
    <g clip-path="url(#p444bd3e85c)">
     <use xlink:href="#m53b34fa2d5" x="112.461122" y="245.50199" style="fill: #808080; stroke: #808080"/>
    </g>
   </g>
   <g id="PathCollection_19">
    <g clip-path="url(#p444bd3e85c)">
     <use xlink:href="#m53b34fa2d5" x="73.832727" y="222.157289" style="fill: #808080; stroke: #808080"/>
    </g>
   </g>
   <g id="matplotlib.axis_1"/>
   <g id="matplotlib.axis_2"/>
   <g id="line2d_1">
    <path d="M 130.930535 142.968933 
L 133.143019 140.49395 
L 139.311725 134.85024 
L 141.861707 132.637756 
L 145.480431 129.731527 
L 149.192905 126.956546 
L 152.267883 124.856561 
L 157.274097 121.725334 
L 162.074063 119.025353 
L 165.524039 117.412864 
L 167.530274 116.794119 
L 170.699002 117.037867 
L 172.33024 117.769112 
L 175.086471 119.550349 
L 179.005193 122.719077 
L 185.923894 128.400286 
L 191.230106 132.169009 
L 197.73631 136.200231 
L 218.192414 148.593893 
L 221.923638 151.425122 
L 224.717368 153.806355 
L 228.448591 156.750085 
L 233.192308 159.431315 
L 238.273521 161.325052 
L 245.285972 163.650035 
L 248.135951 164.812527 
L 251.660926 166.462515 
L 256.048395 169.012497 
L 260.604613 172.218725 
L 268.404557 178.293681 
L 276.317001 182.943648 
L 278.791983 183.806142 
L 282.860704 184.612386 
L 287.041925 184.631136 
L 289.535657 184.199889 
L 291.91689 183.356145 
L 295.160617 181.424909 
L 298.179345 178.631179 
L 299.885583 176.437445 
L 301.498072 173.549965 
L 302.566814 170.868734 
L 303.710556 166.162518 
L 304.385551 160.16256 
L 305.285545 154.800098 
L 306.466787 152.343866 
L 308.191774 150.468879 
L 311.266752 148.593893 
L 315.185475 147.225152 
L 318.785449 146.512657 
L 322.89167 146.08141 
L 332.266603 145.518914 
L 338.022812 144.600171 
L 346.047755 143.137681 
L 348.878985 142.743934 
L 353.097705 142.275187 
L 357.072677 141.97519 
L 361.028899 141.95644 
L 362.17264 142.125189 
L 363.372632 142.575185 
L 364.610123 143.700177 
L 365.416367 145.293916 
L 365.753865 147.018904 
L 365.472617 149.137639 
L 364.385125 151.462622 
L 361.835143 155.850091 
L 360.8039 157.856327 
L 359.285161 161.437551 
L 357.95392 165.80627 
L 357.560173 168.037504 
L 357.522673 169.574993 
L 357.691422 170.681235 
L 358.347668 172.349974 
L 359.37891 173.268717 
L 360.260154 173.399966 
L 361.291397 172.931219 
L 362.097641 172.087475 
L 362.847636 170.812485 
L 363.466381 168.843749 
L 363.710129 166.537515 
L 363.860128 161.812549 
L 364.178876 159.918812 
L 364.966371 158.231324 
L 366.166362 156.993833 
L 367.460103 156.300088 
L 368.866343 155.98134 
L 369.860086 155.96259 
L 372.428817 156.356337 
L 376.497539 157.762577 
L 379.872515 159.262567 
L 382.384997 160.687557 
L 383.659988 161.62505 
L 384.616231 162.543793 
L 385.778723 165.206274 
L 385.591224 166.781263 
L 385.234976 167.812506 
L 384.372483 169.537494 
L 382.909993 171.637479 
L 381.616252 173.118718 
L 380.303761 174.431209 
L 376.422539 177.862434 
L 357.335175 192.974827 
L 351.878964 196.218554 
L 349.141483 197.643544 
L 341.754036 201.093519 
L 336.035326 203.474752 
L 330.110368 205.687237 
L 325.254153 207.093477 
L 316.329216 208.143469 
L 309.748013 207.524723 
L 305.885541 206.58723 
L 302.810563 205.612237 
L 296.360608 203.287254 
L 276.204502 196.518552 
L 270.335793 194.249818 
L 267.260815 192.937327 
L 260.792111 189.806099 
L 257.829632 188.193611 
L 253.854661 185.756128 
L 249.504692 182.68115 
L 242.979738 177.506187 
L 237.879774 173.493715 
L 236.323535 172.499973 
L 234.636047 171.937477 
L 232.273564 172.237474 
L 229.611083 172.949969 
L 228.467341 172.968719 
L 227.323599 172.687471 
L 225.317364 171.356231 
L 223.686125 169.387495 
L 220.704896 164.868777 
L 217.554919 162.018797 
L 209.754974 156.281338 
L 201.298784 149.700135 
L 192.542597 142.668935 
L 186.39264 137.418972 
L 183.130164 134.531493 
L 178.761445 131.662763 
L 175.967714 130.931518 
L 172.40524 130.856519 
L 167.549024 131.587763 
L 164.305297 132.506507 
L 161.08032 133.818998 
L 155.792858 136.818976 
L 153.617873 138.356465 
L 151.030392 140.343951 
L 145.180433 145.781413 
L 142.330454 149.756384 
L 141.317961 156.656335 
L 138.355482 164.006283 
L 136.405496 167.568758 
L 126.374317 181.949905 
L 124.274332 184.387388 
L 122.061848 186.637372 
L 119.286868 188.474859 
L 114.243153 189.018605 
L 111.355674 191.756086 
L 109.349438 194.662315 
L 108.224446 196.574801 
L 106.23696 200.812271 
L 105.224468 203.587251 
L 104.324474 206.812229 
L 103.855727 209.268461 
L 103.48073 212.118441 
L 103.349481 215.362168 
L 103.53698 217.987149 
L 104.174475 220.837129 
L 106.405709 228.730823 
L 106.555708 231.393304 
L 106.27446 232.499546 
L 105.749464 233.474539 
L 105.224468 234.074535 
L 103.668229 235.255776 
L 101.905741 235.893272 
L 100.687 235.949521 
L 98.793263 235.405775 
L 96.50578 234.018285 
L 93.337052 231.374554 
L 90.224574 228.299576 
L 88.199589 225.637095 
L 87.337095 223.987106 
L 87.055847 222.505867 
L 87.149596 221.324625 
L 87.637093 219.862136 
L 89.212081 217.162155 
L 90.693321 214.893421 
L 92.062061 212.24969 
L 93.018304 209.193462 
L 94.855791 199.856028 
L 96.093282 195.918556 
L 98.999512 189.299853 
L 102.243239 183.093647 
L 106.705707 175.106204 
L 107.605701 173.531215 
L 111.205675 167.493758 
L 113.474409 163.987533 
L 117.355631 158.718821 
L 119.605615 155.906341 
L 127.236811 147.112653 
L 127.236811 147.112653 
" clip-path="url(#p444bd3e85c)" style="fill: none; stroke: #1f77b4; stroke-width: 1.5; stroke-linecap: square"/>
   </g>
   <g id="line2d_2">
    <path d="M 168.129217 116.753662 
L 166.885055 103.55401 
" clip-path="url(#p444bd3e85c)" style="fill: none; stroke: #808080; stroke-width: 1.5; stroke-linecap: square"/>
   </g>
   <g id="line2d_3">
    <path d="M 256.200353 169.177447 
L 263.22314 157.932038 
" clip-path="url(#p444bd3e85c)" style="fill: none; stroke: #808080; stroke-width: 1.5; stroke-linecap: square"/>
   </g>
   <g id="line2d_4">
    <path d="M 294.756552 181.579623 
L 287.352309 170.581626 
" clip-path="url(#p444bd3e85c)" style="fill: none; stroke: #808080; stroke-width: 1.5; stroke-linecap: square"/>
   </g>
   <g id="line2d_5">
    <path d="M 306.875107 151.856298 
L 296.629533 143.44161 
" clip-path="url(#p444bd3e85c)" style="fill: none; stroke: #808080; stroke-width: 1.5; stroke-linecap: square"/>
   </g>
   <g id="line2d_6">
    <path d="M 364.6454 143.693968 
L 375.987026 136.827654 
" clip-path="url(#p444bd3e85c)" style="fill: none; stroke: #808080; stroke-width: 1.5; stroke-linecap: square"/>
   </g>
   <g id="line2d_7">
    <path d="M 358.941366 172.834514 
L 350.267225 182.86138 
" clip-path="url(#p444bd3e85c)" style="fill: none; stroke: #808080; stroke-width: 1.5; stroke-linecap: square"/>
   </g>
   <g id="line2d_8">
    <path d="M 367.001082 156.538433 
L 373.737797 167.957515 
" clip-path="url(#p444bd3e85c)" style="fill: none; stroke: #808080; stroke-width: 1.5; stroke-linecap: square"/>
   </g>
   <g id="line2d_9">
    <path d="M 385.229196 166.272198 
L 398.487273 166.318595 
" clip-path="url(#p444bd3e85c)" style="fill: none; stroke: #808080; stroke-width: 1.5; stroke-linecap: square"/>
   </g>
   <g id="line2d_10">
    <path d="M 311.623304 207.820961 
L 313.902824 194.760236 
" clip-path="url(#p444bd3e85c)" style="fill: none; stroke: #808080; stroke-width: 1.5; stroke-linecap: square"/>
   </g>
   <g id="line2d_11">
    <path d="M 233.743845 171.930088 
L 231.476781 158.867195 
" clip-path="url(#p444bd3e85c)" style="fill: none; stroke: #808080; stroke-width: 1.5; stroke-linecap: square"/>
   </g>
   <g id="line2d_12">
    <path d="M 222.508262 167.445263 
L 211.176179 174.327316 
" clip-path="url(#p444bd3e85c)" style="fill: none; stroke: #808080; stroke-width: 1.5; stroke-linecap: square"/>
   </g>
   <g id="line2d_13">
    <path d="M 175.102749 131.030486 
L 172.80902 144.088723 
" clip-path="url(#p444bd3e85c)" style="fill: none; stroke: #808080; stroke-width: 1.5; stroke-linecap: square"/>
   </g>
   <g id="line2d_14">
    <path d="M 141.981695 150.892655 
L 129.58455 146.192705 
" clip-path="url(#p444bd3e85c)" style="fill: none; stroke: #808080; stroke-width: 1.5; stroke-linecap: square"/>
   </g>
   <g id="line2d_15">
    <path d="M 140.850743 158.62151 
L 153.049879 163.813796 
" clip-path="url(#p444bd3e85c)" style="fill: none; stroke: #808080; stroke-width: 1.5; stroke-linecap: square"/>
   </g>
   <g id="line2d_16">
    <path d="M 120.847409 187.612493 
L 128.306763 198.573186 
" clip-path="url(#p444bd3e85c)" style="fill: none; stroke: #808080; stroke-width: 1.5; stroke-linecap: square"/>
   </g>
   <g id="line2d_17">
    <path d="M 115.315466 188.537792 
L 111.044758 175.986306 
" clip-path="url(#p444bd3e85c)" style="fill: none; stroke: #808080; stroke-width: 1.5; stroke-linecap: square"/>
   </g>
   <g id="line2d_18">
    <path d="M 105.005548 204.535292 
L 117.664733 208.475316 
" clip-path="url(#p444bd3e85c)" style="fill: none; stroke: #808080; stroke-width: 1.5; stroke-linecap: square"/>
   </g>
   <g id="line2d_19">
    <path d="M 104.391563 234.982438 
L 112.461122 245.50199 
" clip-path="url(#p444bd3e85c)" style="fill: none; stroke: #808080; stroke-width: 1.5; stroke-linecap: square"/>
   </g>
   <g id="line2d_20">
    <path d="M 87.082104 222.639753 
L 73.832727 222.157289 
" clip-path="url(#p444bd3e85c)" style="fill: none; stroke: #808080; stroke-width: 1.5; stroke-linecap: square"/>
   </g>
   <g id="text_1">
    <!-- 1 -->
    <g style="fill: #ffffff" transform="translate(164.235074 106.718759) scale(0.0833 -0.0833)">
     <defs>
      <path id="DejaVuSans-31" d="M 794 531 
L 1825 531 
L 1825 4091 
L 703 3866 
L 703 4441 
L 1819 4666 
L 2450 4666 
L 2450 531 
L 3481 531 
L 3481 0 
L 794 0 
L 794 531 
z
" transform="scale(0.015625)"/>
     </defs>
     <use xlink:href="#DejaVuSans-31"/>
    </g>
   </g>
   <g id="text_2">
    <!-- 2 -->
    <g style="fill: #ffffff" transform="translate(260.573158 161.096787) scale(0.0833 -0.0833)">
     <defs>
      <path id="DejaVuSans-32" d="M 1228 531 
L 3431 531 
L 3431 0 
L 469 0 
L 469 531 
Q 828 903 1448 1529 
Q 2069 2156 2228 2338 
Q 2531 2678 2651 2914 
Q 2772 3150 2772 3378 
Q 2772 3750 2511 3984 
Q 2250 4219 1831 4219 
Q 1534 4219 1204 4116 
Q 875 4013 500 3803 
L 500 4441 
Q 881 4594 1212 4672 
Q 1544 4750 1819 4750 
Q 2544 4750 2975 4387 
Q 3406 4025 3406 3419 
Q 3406 3131 3298 2873 
Q 3191 2616 2906 2266 
Q 2828 2175 2409 1742 
Q 1991 1309 1228 531 
z
" transform="scale(0.015625)"/>
     </defs>
     <use xlink:href="#DejaVuSans-32"/>
    </g>
   </g>
   <g id="text_3">
    <!-- 3 -->
    <g style="fill: #ffffff" transform="translate(284.702328 173.746375) scale(0.0833 -0.0833)">
     <defs>
      <path id="DejaVuSans-33" d="M 2597 2516 
Q 3050 2419 3304 2112 
Q 3559 1806 3559 1356 
Q 3559 666 3084 287 
Q 2609 -91 1734 -91 
Q 1441 -91 1130 -33 
Q 819 25 488 141 
L 488 750 
Q 750 597 1062 519 
Q 1375 441 1716 441 
Q 2309 441 2620 675 
Q 2931 909 2931 1356 
Q 2931 1769 2642 2001 
Q 2353 2234 1838 2234 
L 1294 2234 
L 1294 2753 
L 1863 2753 
Q 2328 2753 2575 2939 
Q 2822 3125 2822 3475 
Q 2822 3834 2567 4026 
Q 2313 4219 1838 4219 
Q 1578 4219 1281 4162 
Q 984 4106 628 3988 
L 628 4550 
Q 988 4650 1302 4700 
Q 1616 4750 1894 4750 
Q 2613 4750 3031 4423 
Q 3450 4097 3450 3541 
Q 3450 3153 3228 2886 
Q 3006 2619 2597 2516 
z
" transform="scale(0.015625)"/>
     </defs>
     <use xlink:href="#DejaVuSans-33"/>
    </g>
   </g>
   <g id="text_4">
    <!-- 4 -->
    <g style="fill: #ffffff" transform="translate(293.979552 146.60636) scale(0.0833 -0.0833)">
     <defs>
      <path id="DejaVuSans-34" d="M 2419 4116 
L 825 1625 
L 2419 1625 
L 2419 4116 
z
M 2253 4666 
L 3047 4666 
L 3047 1625 
L 3713 1625 
L 3713 1100 
L 3047 1100 
L 3047 0 
L 2419 0 
L 2419 1100 
L 313 1100 
L 313 1709 
L 2253 4666 
z
" transform="scale(0.015625)"/>
     </defs>
     <use xlink:href="#DejaVuSans-34"/>
    </g>
   </g>
   <g id="text_5">
    <!-- 5 -->
    <g style="fill: #ffffff" transform="translate(373.337045 139.992404) scale(0.0833 -0.0833)">
     <defs>
      <path id="DejaVuSans-35" d="M 691 4666 
L 3169 4666 
L 3169 4134 
L 1269 4134 
L 1269 2991 
Q 1406 3038 1543 3061 
Q 1681 3084 1819 3084 
Q 2600 3084 3056 2656 
Q 3513 2228 3513 1497 
Q 3513 744 3044 326 
Q 2575 -91 1722 -91 
Q 1428 -91 1123 -41 
Q 819 9 494 109 
L 494 744 
Q 775 591 1075 516 
Q 1375 441 1709 441 
Q 2250 441 2565 725 
Q 2881 1009 2881 1497 
Q 2881 1984 2565 2268 
Q 2250 2553 1709 2553 
Q 1456 2553 1204 2497 
Q 953 2441 691 2322 
L 691 4666 
z
" transform="scale(0.015625)"/>
     </defs>
     <use xlink:href="#DejaVuSans-35"/>
    </g>
   </g>
   <g id="text_6">
    <!-- 6 -->
    <g style="fill: #ffffff" transform="translate(347.617244 186.026129) scale(0.0833 -0.0833)">
     <defs>
      <path id="DejaVuSans-36" d="M 2113 2584 
Q 1688 2584 1439 2293 
Q 1191 2003 1191 1497 
Q 1191 994 1439 701 
Q 1688 409 2113 409 
Q 2538 409 2786 701 
Q 3034 994 3034 1497 
Q 3034 2003 2786 2293 
Q 2538 2584 2113 2584 
z
M 3366 4563 
L 3366 3988 
Q 3128 4100 2886 4159 
Q 2644 4219 2406 4219 
Q 1781 4219 1451 3797 
Q 1122 3375 1075 2522 
Q 1259 2794 1537 2939 
Q 1816 3084 2150 3084 
Q 2853 3084 3261 2657 
Q 3669 2231 3669 1497 
Q 3669 778 3244 343 
Q 2819 -91 2113 -91 
Q 1303 -91 875 529 
Q 447 1150 447 2328 
Q 447 3434 972 4092 
Q 1497 4750 2381 4750 
Q 2619 4750 2861 4703 
Q 3103 4656 3366 4563 
z
" transform="scale(0.015625)"/>
     </defs>
     <use xlink:href="#DejaVuSans-36"/>
    </g>
   </g>
   <g id="text_7">
    <!-- 7 -->
    <g style="fill: #ffffff" transform="translate(371.087816 171.122264) scale(0.0833 -0.0833)">
     <defs>
      <path id="DejaVuSans-37" d="M 525 4666 
L 3525 4666 
L 3525 4397 
L 1831 0 
L 1172 0 
L 2766 4134 
L 525 4134 
L 525 4666 
z
" transform="scale(0.015625)"/>
     </defs>
     <use xlink:href="#DejaVuSans-37"/>
    </g>
   </g>
   <g id="text_8">
    <!-- 8 -->
    <g style="fill: #ffffff" transform="translate(395.837291 169.483344) scale(0.0833 -0.0833)">
     <defs>
      <path id="DejaVuSans-38" d="M 2034 2216 
Q 1584 2216 1326 1975 
Q 1069 1734 1069 1313 
Q 1069 891 1326 650 
Q 1584 409 2034 409 
Q 2484 409 2743 651 
Q 3003 894 3003 1313 
Q 3003 1734 2745 1975 
Q 2488 2216 2034 2216 
z
M 1403 2484 
Q 997 2584 770 2862 
Q 544 3141 544 3541 
Q 544 4100 942 4425 
Q 1341 4750 2034 4750 
Q 2731 4750 3128 4425 
Q 3525 4100 3525 3541 
Q 3525 3141 3298 2862 
Q 3072 2584 2669 2484 
Q 3125 2378 3379 2068 
Q 3634 1759 3634 1313 
Q 3634 634 3220 271 
Q 2806 -91 2034 -91 
Q 1263 -91 848 271 
Q 434 634 434 1313 
Q 434 1759 690 2068 
Q 947 2378 1403 2484 
z
M 1172 3481 
Q 1172 3119 1398 2916 
Q 1625 2713 2034 2713 
Q 2441 2713 2670 2916 
Q 2900 3119 2900 3481 
Q 2900 3844 2670 4047 
Q 2441 4250 2034 4250 
Q 1625 4250 1398 4047 
Q 1172 3844 1172 3481 
z
" transform="scale(0.015625)"/>
     </defs>
     <use xlink:href="#DejaVuSans-38"/>
    </g>
   </g>
   <g id="text_9">
    <!-- 9 -->
    <g style="fill: #ffffff" transform="translate(311.252842 197.924985) scale(0.0833 -0.0833)">
     <defs>
      <path id="DejaVuSans-39" d="M 703 97 
L 703 672 
Q 941 559 1184 500 
Q 1428 441 1663 441 
Q 2288 441 2617 861 
Q 2947 1281 2994 2138 
Q 2813 1869 2534 1725 
Q 2256 1581 1919 1581 
Q 1219 1581 811 2004 
Q 403 2428 403 3163 
Q 403 3881 828 4315 
Q 1253 4750 1959 4750 
Q 2769 4750 3195 4129 
Q 3622 3509 3622 2328 
Q 3622 1225 3098 567 
Q 2575 -91 1691 -91 
Q 1453 -91 1209 -44 
Q 966 3 703 97 
z
M 1959 2075 
Q 2384 2075 2632 2365 
Q 2881 2656 2881 3163 
Q 2881 3666 2632 3958 
Q 2384 4250 1959 4250 
Q 1534 4250 1286 3958 
Q 1038 3666 1038 3163 
Q 1038 2656 1286 2365 
Q 1534 2075 1959 2075 
z
" transform="scale(0.015625)"/>
     </defs>
     <use xlink:href="#DejaVuSans-39"/>
    </g>
   </g>
   <g id="text_10">
    <!-- 10 -->
    <g style="fill: #ffffff" transform="translate(226.176818 162.031945) scale(0.0833 -0.0833)">
     <defs>
      <path id="DejaVuSans-30" d="M 2034 4250 
Q 1547 4250 1301 3770 
Q 1056 3291 1056 2328 
Q 1056 1369 1301 889 
Q 1547 409 2034 409 
Q 2525 409 2770 889 
Q 3016 1369 3016 2328 
Q 3016 3291 2770 3770 
Q 2525 4250 2034 4250 
z
M 2034 4750 
Q 2819 4750 3233 4129 
Q 3647 3509 3647 2328 
Q 3647 1150 3233 529 
Q 2819 -91 2034 -91 
Q 1250 -91 836 529 
Q 422 1150 422 2328 
Q 422 3509 836 4129 
Q 1250 4750 2034 4750 
z
" transform="scale(0.015625)"/>
     </defs>
     <use xlink:href="#DejaVuSans-31"/>
     <use xlink:href="#DejaVuSans-30" x="63.623047"/>
    </g>
   </g>
   <g id="text_11">
    <!-- 11 -->
    <g style="fill: #ffffff" transform="translate(205.876217 177.492066) scale(0.0833 -0.0833)">
     <use xlink:href="#DejaVuSans-31"/>
     <use xlink:href="#DejaVuSans-31" x="63.623047"/>
    </g>
   </g>
   <g id="text_12">
    <!-- 12 -->
    <g style="fill: #ffffff" transform="translate(167.509057 147.253472) scale(0.0833 -0.0833)">
     <use xlink:href="#DejaVuSans-31"/>
     <use xlink:href="#DejaVuSans-32" x="63.623047"/>
    </g>
   </g>
   <g id="text_13">
    <!-- 13 -->
    <g style="fill: #ffffff" transform="translate(124.284587 149.357454) scale(0.0833 -0.0833)">
     <use xlink:href="#DejaVuSans-31"/>
     <use xlink:href="#DejaVuSans-33" x="63.623047"/>
    </g>
   </g>
   <g id="text_14">
    <!-- 14 -->
    <g style="fill: #ffffff" transform="translate(147.749917 166.978545) scale(0.0833 -0.0833)">
     <use xlink:href="#DejaVuSans-31"/>
     <use xlink:href="#DejaVuSans-34" x="63.623047"/>
    </g>
   </g>
   <g id="text_15">
    <!-- 15 -->
    <g style="fill: #ffffff" transform="translate(123.0068 201.737936) scale(0.0833 -0.0833)">
     <use xlink:href="#DejaVuSans-31"/>
     <use xlink:href="#DejaVuSans-35" x="63.623047"/>
    </g>
   </g>
   <g id="text_16">
    <!-- 16 -->
    <g style="fill: #ffffff" transform="translate(105.744795 179.151055) scale(0.0833 -0.0833)">
     <use xlink:href="#DejaVuSans-31"/>
     <use xlink:href="#DejaVuSans-36" x="63.623047"/>
    </g>
   </g>
   <g id="text_17">
    <!-- 17 -->
    <g style="fill: #ffffff" transform="translate(112.36477 211.640065) scale(0.0833 -0.0833)">
     <use xlink:href="#DejaVuSans-31"/>
     <use xlink:href="#DejaVuSans-37" x="63.623047"/>
    </g>
   </g>
   <g id="text_18">
    <!-- 18 -->
    <g style="fill: #ffffff" transform="translate(107.16116 248.666739) scale(0.0833 -0.0833)">
     <use xlink:href="#DejaVuSans-31"/>
     <use xlink:href="#DejaVuSans-38" x="63.623047"/>
    </g>
   </g>
   <g id="text_19">
    <!-- 19 -->
    <g style="fill: #ffffff" transform="translate(68.532765 225.322039) scale(0.0833 -0.0833)">
     <use xlink:href="#DejaVuSans-31"/>
     <use xlink:href="#DejaVuSans-39" x="63.623047"/>
    </g>
   </g>
  </g>
 </g>
 <defs>
  <clipPath id="p444bd3e85c">
   <rect x="57.6" y="41.472" width="357.12" height="266.112"/>
  </clipPath>
 </defs>
</svg>
